<svg width="23" height="20" viewBox="0 0 23 20" fill="none" xmlns="http://www.w3.org/2000/svg">
<path d="M21.9044 5.0483C21.7815 4.56737 21.5918 4.10603 21.3409 3.67774C21.0999 3.2322 20.7917 2.82642 20.4272 2.47469C19.8987 1.94799 19.2729 1.52905 18.5846 1.24118C17.199 0.672536 15.6452 0.672536 14.2597 1.24118C13.6091 1.51657 13.0113 1.90304 12.4932 2.38332L12.417 2.47469L11.4272 3.46454L10.4373 2.47469L10.3612 2.38332C9.84305 1.90304 9.24531 1.51657 8.5947 1.24118C7.20914 0.672536 5.65537 0.672536 4.26981 1.24118C3.58146 1.52905 2.95564 1.94799 2.42717 2.47469C1.70437 3.17798 1.19271 4.06944 0.950009 5.0483C0.820894 5.54539 0.759426 6.05762 0.767267 6.57115C0.767267 7.05389 0.828181 7.53511 0.950009 8.00262C1.07767 8.47477 1.26174 8.92982 1.49823 9.35795C1.75364 9.79807 2.06598 10.2026 2.42717 10.561L11.4272 19.561L20.4272 10.561C20.7881 10.2062 21.0973 9.79958 21.3409 9.35795C21.8355 8.51293 22.0933 7.55025 22.0871 6.57115C22.095 6.05762 22.0335 5.54538 21.9044 5.0483ZM20.3815 7.53054C20.1991 8.22635 19.8367 8.86188 19.3308 9.37318L11.3967 17.292L3.4627 9.37318C3.20416 9.1128 2.97907 8.82121 2.79265 8.50516C2.61723 8.19249 2.47923 7.86025 2.38148 7.51531C2.30345 7.17041 2.26261 6.81815 2.25966 6.46455C2.26172 6.10083 2.30256 5.73838 2.38148 5.38332C2.47636 5.03739 2.61451 4.70482 2.79265 4.39347C2.97539 4.07368 3.20078 3.78434 3.4627 3.52545C3.85392 3.13948 4.31351 2.82964 4.81804 2.61174C5.83471 2.20503 6.96889 2.20503 7.98556 2.61174C8.4881 2.82037 8.94191 3.12647 9.32566 3.51022L11.3967 5.59652L13.4678 3.51022C13.8513 3.12579 14.3066 2.8205 14.8079 2.61174C15.8246 2.20503 16.9588 2.20503 17.9754 2.61174C18.4795 2.82951 18.9394 3.14017 19.3308 3.52545C19.5957 3.77672 19.8181 4.06911 19.9856 4.39347C20.3383 5.0155 20.5221 5.71902 20.5186 6.43409C20.5393 6.80204 20.5085 7.17109 20.4272 7.53054H20.3815Z" fill="#FFB800"/>
</svg>
